<svg xmlns="http://www.w3.org/2000/svg" viewBox="0 0 512 512">
  <rect width="512" height="512" rx="112" fill="#f6e1a8"/>
  <!-- onigiri body -->
  <path d="M256 86c22 0 40 12 50 31l104 196c14 26-4 57-34 57H136c-30 0-48-31-34-57l104-196c10-19 28-31 50-31z"
        fill="#fff" stroke="#000" stroke-width="18" stroke-linejoin="round"/>
  <!-- nori wrap -->
  <path d="M158 300h196l30 57c8 15-2 33-20 33H148c-18 0-28-18-20-33z"
        fill="#111827" stroke="#000" stroke-width="16" stroke-linejoin="round"/>
  <!-- eyes -->
  <ellipse cx="212" cy="232" rx="17" ry="23" fill="#111827"/>
  <ellipse cx="300" cy="232" rx="17" ry="23" fill="#111827"/>
  <circle cx="218" cy="223" r="6" fill="#fff"/>
  <circle cx="306" cy="223" r="6" fill="#fff"/>
  <!-- blush -->
  <ellipse cx="176" cy="266" rx="19" ry="12" fill="#ff7f4a" opacity=".85"/>
  <ellipse cx="336" cy="266" rx="19" ry="12" fill="#ff7f4a" opacity=".85"/>
  <!-- smile -->
  <path d="M238 262c11 11 27 11 38 0" fill="none" stroke="#111827" stroke-width="11" stroke-linecap="round"/>
  <!-- sparkle -->
  <path d="M392 132l9 25 25 9-25 9-9 25-9-25-25-9 25-9z" fill="#ffe711" stroke="#000" stroke-width="9" stroke-linejoin="round"/>
</svg>
